PathFileType	4	(X/Y/Z)	C:/Users/opensim2020/Desktop/walking_exp_matlab/subject03_walking11_straight_02.trc	
DataRate	CameraRate	NumFrames	NumMarkers	Units	OrigDataRate	OrigDataStartFrame	OrigNumFrames	
100.00	100.00	5	46	mm	100.00	1843	357	
Frame#	Time	LFHD			RFHD			LBHD			RBHD			C7			T10			CLAV			STRN			RBAK			LSHO			LUPA			LELB			LFRM			LWRA			LWRB			LFIN			RSHO			RUPA			RELB			RFRM			RWRA			RWRB			RFIN			LASI			RASI			LPSI			RPSI			LTHI			LKNE			LTIB			LANK			LHEE			LTOE			RTHI			RKNE			RTIB			RANK			RHEE			RTOE			*39			*40			*41			*42			*43			*44			*45			
		X1	Y1	Z1	X2	Y2	Z2	X3	Y3	Z3	X4	Y4	Z4	X5	Y5	Z5	X6	Y6	Z6	X7	Y7	Z7	X8	Y8	Z8	X9	Y9	Z9	X10	Y10	Z10	X11	Y11	Z11	X12	Y12	Z12	X13	Y13	Z13	X14	Y14	Z14	X15	Y15	Z15	X16	Y16	Z16	X17	Y17	Z17	X18	Y18	Z18	X19	Y19	Z19	X20	Y20	Z20	X21	Y21	Z21	X22	Y22	Z22	X23	Y23	Z23	X24	Y24	Z24	X25	Y25	Z25	X26	Y26	Z26	X27	Y27	Z27	X28	Y28	Z28	X29	Y29	Z29	X30	Y30	Z30	X31	Y31	Z31	X32	Y32	Z32	X33	Y33	Z33	X34	Y34	Z34	X35	Y35	Z35	X36	Y36	Z36	X37	Y37	Z37	X38	Y38	Z38	X39	Y39	Z39	X40	Y40	Z40	X41	Y41	Z41	X42	Y42	Z42	X43	Y43	Z43	X44	Y44	Z44	X45	Y45	Z45	X46	Y46	Z46	

45	0.440	-912.05865	809.01801	1623.03333	-1044.10461	820.94891	1633.64990	-908.92084	931.52448	1565.72571	-1039.21924	938.54553	1576.16724	-974.78790	958.31152	1420.55408	-984.09229	1004.62634	1110.94421	-981.73682	839.00659	1339.00098	-981.03986	803.99762	1171.68872	-1077.54724	1018.86591	1252.42603	-824.40814	875.78998	1371.82837	-752.04504	867.80908	1176.93665	-740.24237	847.68317	1055.55127	-743.70251	809.76404	930.85333	-774.86322	785.96954	814.52136	-719.94208	798.45203	819.75574	-730.03375	774.62415	739.32367	-1138.85840	882.79059	1369.22534	-1212.83899	876.81537	1147.53540	-1225.45483	855.15454	1036.80579	-1225.35034	827.17194	902.76508	-1188.10730	789.91431	811.31342	-1232.76672	819.57269	803.09955	-1221.52014	788.69702	735.51318	-867.31757	843.30212	943.79919	-1105.96057	844.70691	940.52759	-917.93768	1005.65009	970.83185	-1067.08875	1004.93109	972.35895	-834.92194	897.45538	642.59741	-877.70740	885.80963	465.58395	-878.35242	928.29535	275.40701	-922.17542	932.83636	65.66585	-959.97125	970.06531	29.22649	-942.90399	778.09833	31.44183	-1159.15527	852.03479	647.45203	-1140.37122	791.19861	477.26608	-1146.29700	908.27197	327.20795	-1109.63110	1041.06909	156.05907	-1056.40576	1095.35095	147.33130	-1098.65674	945.02460	53.46600	-952.06683	900.93103	1677.78040																		 
46	0.450	-912.33582	802.14612	1623.00073	-1044.29602	814.09027	1633.39526	-908.90460	924.92743	1566.30505	-1039.23328	931.96490	1576.50781	-974.50354	952.47314	1420.75659	-983.39069	998.69659	1111.06299	-981.42249	833.14423	1339.21558	-980.62250	798.10632	1171.92554	-1077.06152	1013.00085	1252.46960	-824.28961	869.79218	1372.33655	-751.12079	859.72882	1178.05261	-738.88782	837.64594	1057.01526	-742.07361	797.56818	933.13538	-773.09491	771.34839	817.26538	-718.19958	784.09198	822.34662	-728.00458	758.47156	742.51477	-1138.50684	877.06293	1369.34265	-1212.61328	871.33765	1147.66968	-1225.35913	850.14752	1036.90222	-1225.35962	822.52985	902.78052	-1188.20728	785.35461	811.24524	-1232.81543	815.16711	803.04529	-1221.51721	784.66858	735.27472	-866.45959	838.07959	943.60480	-1105.08801	838.34680	940.95270	-917.62030	999.78094	970.81293	-1066.68140	998.66510	972.48163	-833.92310	893.46075	642.38147	-877.33441	882.20355	465.41489	-878.22253	926.19684	275.44986	-922.23694	932.70660	65.73367	-959.46582	970.60022	29.77262	-942.91174	778.05023	31.43961	-1158.29443	842.61230	648.47620	-1138.63904	779.86072	479.06137	-1144.80676	892.56775	325.26178	-1108.20215	1019.90668	149.82422	-1055.72388	1073.94263	138.94493	-1096.74048	919.51672	51.77966	-952.29468	893.76721	1678.09509																		 
47	0.460	-912.57678	795.24976	1622.86523	-1044.62756	807.30389	1633.09863	-908.95245	918.23804	1566.76746	-1039.24988	925.33704	1576.74426	-974.21014	946.56647	1420.88416	-982.66211	992.70410	1111.08350	-981.13220	827.34357	1339.34937	-980.17761	792.22406	1172.13440	-1076.53845	1007.14069	1252.35266	-824.12421	863.81476	1372.73975	-750.16986	851.84442	1179.02380	-737.48138	828.04346	1058.53210	-740.48535	785.48663	935.42773	-771.35211	756.81830	820.08905	-716.56476	769.88885	824.92834	-726.20349	742.52551	745.69275	-1138.24219	871.30664	1369.30530	-1212.44714	865.86603	1147.64929	-1225.35901	845.13025	1036.88062	-1225.45715	817.79828	902.68750	-1188.38123	780.78595	811.02832	-1232.87170	810.74738	802.91644	-1221.59888	780.54028	734.90808	-865.51678	832.09039	943.52246	-1104.25732	831.94568	941.37427	-917.28546	993.81433	970.73016	-1066.28320	992.43280	972.53571	-833.72485	888.82159	642.36407	-877.00232	878.57996	465.19897	-878.09290	924.19366	275.55228	-922.28357	932.56854	65.82291	-958.71350	971.94104	30.81120	-942.85388	778.02911	31.36742	-1157.52295	833.36414	649.43744	-1136.92432	768.93103	480.72946	-1143.36157	876.91266	323.14783	-1106.94934	998.25983	143.43399	-1054.52930	1051.96960	130.27745	-1094.82397	894.01837	49.75109	-952.76788	886.72803	1678.60193																		 
48	0.470	-912.85236	788.39532	1622.75269	-1044.91040	800.47931	1632.73242	-909.10095	911.66296	1567.15027	-1039.43872	918.78491	1576.88257	-973.99988	940.74054	1420.94482	-981.96692	986.66742	1111.00806	-980.96619	821.49548	1339.33582	-979.74231	786.28516	1172.24487	-1075.97266	1001.35205	1252.14978	-824.01526	857.80597	1373.10999	-749.27618	844.00220	1180.04846	-736.12939	818.41400	1059.96741	-738.93292	773.54266	937.74939	-769.73035	742.39154	823.08734	-715.11517	755.84167	827.55798	-724.55267	726.76251	748.93701	-1138.06604	865.72028	1369.19934	-1212.32153	860.49683	1147.55957	-1225.32886	840.09894	1036.70544	-1225.47351	813.03900	902.46320	-1188.47302	776.24335	810.70166	-1232.97266	806.08173	802.64355	-1221.56873	776.19714	734.50055	-864.70886	826.27802	943.38696	-1103.48792	825.54657	941.72095	-916.99799	987.90405	970.54291	-1065.89136	986.22198	972.49463	-833.05463	884.52881	642.22211	-876.71973	874.99652	464.96927	-878.01038	922.25189	275.59723	-922.48462	932.41718	65.90673	-959.15338	971.36475	30.63593	-943.08716	777.90643	31.16276	-1156.87000	824.32617	650.34735	-1135.29651	758.47101	482.18338	-1142.01208	861.37445	320.92126	-1105.61597	976.10516	136.74626	-1053.27124	1029.59778	121.68452	-1092.89697	868.08075	47.73850	-953.00238	879.55823	1678.58582																		 
49	0.480	-913.24481	781.57965	1622.53882	-1045.30615	793.70056	1632.26489	-909.23914	905.00299	1567.41089	-1039.64136	912.23187	1576.90759	-973.81982	934.76837	1420.89539	-981.31238	980.57947	1110.88391	-980.62335	815.73700	1339.47754	-979.33997	780.37024	1172.26660	-1075.36829	995.55939	1251.82776	-823.85962	851.82715	1373.37183	-748.50262	836.12976	1181.00439	-734.83228	809.02374	1061.34131	-737.49188	761.75775	940.00763	-768.33478	728.09058	826.06042	-713.77191	741.94556	830.20599	-723.16388	711.20972	752.22809	-1137.83289	860.03754	1368.91003	-1212.22717	855.06079	1147.30481	-1225.30615	834.97516	1036.40503	-1225.55115	808.21539	902.14447	-1188.58643	771.58417	810.27747	-1233.07678	801.64063	802.40625	-1221.47034	771.72900	733.93866	-863.99988	820.37073	943.17078	-1102.32434	819.51971	941.79340	-916.66718	981.88556	970.30243	-1065.50842	979.96460	972.36243	-833.58765	879.07660	641.90497	-876.41663	871.48346	464.70148	-877.89093	920.31189	275.59659	-922.52673	932.29199	65.99741	-959.24805	971.38184	30.71563	-942.73260	777.86188	31.38831	-1156.38550	815.37988	651.18085	-1133.81213	748.40125	483.48831	-1140.68884	846.02539	318.58148	-1103.98364	953.60608	130.13538	-1052.03296	1006.36603	112.64240	-1091.12256	841.87549	45.95095	-953.51031	872.60583	1678.91248																		 
